#!OML:ASF E:/inclinewalkrobotboard/Project1/Captureday1/Session1/subject1.ASF
:FULLY-SPECIFIED
:DEGREES
38
root 0 0 0 40.742491495077466 -26.131548296534497 1.2441981313668897
lowerback -5.494203662635232 0.610142270498881 -13.496910959393098
upperback -14.120810747041224 0.10481240115223112 -4.819692446062737
thorax -12.725602591116786 1.0697685606563787 2.190974622049236
lowerneck -13.228274699671118 6.39858026444842 5.300212224696889
upperneck 17.126395878165454 7.430464469308722 1.7926771151631513
head 7.537429747941122 4.03238816537903 0.48266713529246374
rclavicle 1.540188435215988E-15 1.3645227451255679E-14
rhumerus 170.63976898433802 17.747119234289663 -209.33071613226195
rradius 9.94392646251988
rwrist 118.44248913005228
rhand -19.395920969234982 10.513620794973644
rfingers 7.125020000000026
rthumb 7.003544818706459 -19.456821743834176
lclavicle -3.0750274892820146E-15 9.947495034672301E-15
lhumerus 10.147584718048318 15.480518986096012 2.228807632477185
lradius 21.359531054578454
lwrist -39.00834228890896
lhand 0.5082849907429796 35.28923357388868
lfingers 7.12502000000004
lthumb 26.07440830440424 63.633155998659355
rfemur 165.1263104436137 -188.51368787146097 -152.81778350811408
rtibia 30.979043314045285
rfoot -39.99618164824056 -42.68878921426109
rtoes 39.965533946573906
lfemur -69.74817429497232 14.066916130624202 -40.65218868326288
ltibia 58.201873126557906
lfoot -34.139279891468405 26.727478924365126
ltoes 11.339541306643053
39
root 0 0 0 40.54054638692351 -26.836327144770845 0.997584573787714
lowerback -5.688167572536271 0.7593047612275283 -13.294984935183708
upperback -14.27512364717673 0.32243594062700487 -4.916215930391058
thorax -12.830449393767944 1.1689996895993597 1.9513731775338907
lowerneck -13.02149942531361 6.570452349746273 5.432105018416682
upperneck 17.184885796438856 7.618076866122879 1.8017894126932907
head 7.533921821728003 4.133222292307187 0.493893697754783
rclavicle 1.323967849571867E-16 1.3206433231113376E-14
rhumerus 169.92999894988532 14.282487330037036 -204.3910742458573
rradius 10.038936853289044
rwrist 118.09283105171082
rhand -19.370235334940258 10.610083313990025
rfingers 7.125020000000027
rthumb 7.02684850351482 -19.388823110895608
lclavicle -5.00164929284274E-15 9.401839466608152E-15
lhumerus 7.6782896169522346 15.008367807919585 0.9418529284417758
lradius 21.104713370264676
lwrist -39.02821822738541
lhand 0.5248763713981133 35.088556838982214
lfingers 7.125020000000042
lthumb 26.087592333245546 63.39354589856099
rfemur 165.4165401802399 -184.1072631583884 -151.3978712242788
rtibia 31.959782787375538
rfoot -26.762783834245727 -45.119398119132
rtoes 38.340656246192836
lfemur -73.40900580017055 17.25081990521924 -42.38768964967222
ltibia 58.61094341663765
lfoot -33.325040233391455 28.530637582083905
ltoes 11.47371431861263
40
root 0 0 0 40.39409252005435 -27.367957457096978 0.735063630748396
lowerback -5.812134011953648 0.8627391127338404 -13.076116436201964
upperback -14.387918917823505 0.4798537078052416 -4.9517226982077585
thorax -12.913254596743405 1.2377907439188587 1.7761977438055598
lowerneck -12.86388676495105 6.66818986426681 5.514638137595882
upperneck 17.2850884876217 7.720271652164257 1.7926275773099305
head 7.550056478598553 4.1881434455588495 0.49393140879542974
rclavicle -3.4197375353683684E-16 1.2694663429631833E-14
rhumerus 169.62380481086754 10.19402395226681 -199.4243356452793
rradius 10.062831183022059
rwrist 117.58432654136415
rhand -19.23063930838326 10.690456929406604
rfingers 7.125020000000028
rthumb 7.160603132481736 -19.32407203300412
lclavicle -5.5810224686642586E-15 8.669413267529893E-15
lhumerus 6.224751143173181 14.793984611770316 0.2758701800708394
lradius 20.98515722057069
lwrist -38.94826889914018
lhand 0.5343151819738308 34.99018370999518
lfingers 7.125020000000042
lthumb 26.094464496865218 63.275434645640885
rfemur 166.0115001017654 -180.34254137632786 -151.07692449738954
rtibia 32.83719150253896
rfoot -14.938029215351891 -46.09093367520767
rtoes 37.15834889882383
lfemur -74.75394692325484 18.850260304656167 -43.211676702603235
ltibia 58.709110020544614
lfoot -33.07089406484461 29.505322161866854
ltoes 11.412726241280948
41
root 0 0 0 40.36167490724796 -27.809534216579177 0.44874099417991964
lowerback -5.881032454449587 0.931540332065212 -12.891172999072952
upperback -14.471577198754698 0.5838037370009446 -4.956513441918924
thorax -12.983203850644795 1.2803662139835257 1.6584161307232503
lowerneck -12.72854363439855 6.7571832663009275 5.5878954929082
upperneck 17.347441773865796 7.816098405272564 1.7888550591966452
head 7.555120302095913 4.239104518409018 0.49381382568794097
rclavicle -5.283086206314118E-16 1.2287296469706135E-14
rhumerus 169.56630321912232 5.7708984505739735 -194.3367009098282
rradius 10.05278805206688
rwrist 116.99961625753669
rhand -18.96178737079782 10.69512700040047
rfingers 7.1250200000000286
rthumb 7.419443873607719 -19.322291328468644
lclavicle -5.772227286555857E-15 8.172147520118136E-15
lhumerus 5.319940508065384 14.680826698850336 -0.08920131154174982
lradius 20.942679278026883
lwrist -38.84440753580333
lhand 0.5275538639731969 34.940353959907426
lfingers 7.125020000000042
lthumb 26.08592548453294 63.215596072485354
rfemur 167.95166279531924 -178.21965742159045 -152.1228881716877
rtibia 33.620590722831274
rfoot -4.4085008702879716 -46.5072931985429
rtoes 36.31916668847672
lfemur -74.82335583722539 19.278433447805142 -43.31524791122709
ltibia 58.596256486048475
lfoot -33.201387146526976 29.851020982683536
ltoes 11.42480498933939
42
root 0 0 0 40.50072474065078 -28.36183745618917 -0.019056275984953075
lowerback -5.942380584232802 0.9996013634817159 -12.658745170598834
upperback -14.572430531043874 0.6841422627500661 -4.9274011719706685
thorax -13.071096840119449 1.3157784142372493 1.5522732323313517
lowerneck -12.557055950529067 6.905082438370642 5.6971743793729885
upperneck 17.357784795795524 7.987088649479361 1.7820383755955231
head 7.537851340628308 4.3272330709004185 0.49338506139584837
rclavicle -4.933260336021651E-16 1.1801802100656638E-14
rhumerus 169.71427823354904 -0.4478253679409008 -187.41622490043412
rradius 10.020891879412293
rwrist 116.04310583528493
rhand -18.266974361118685 10.441355830597876
rfingers 7.12502000000003
rthumb 8.088549100344599 -19.546823309186518
lclavicle -5.700119114159018E-15 7.7199788925884E-15
lhumerus 4.531631520001568 14.531381324416623 -0.43017856126976994
lradius 20.97406475027227
lwrist -38.615163263638934
lhand 0.5113964950437524 34.92998390945076
lfingers 7.125020000000042
lthumb 26.067394667665194 63.1960115417777
rfemur 172.4906177719759 -177.7981557421353 -155.37845512373985
rtibia 34.54413359198888
rfoot 7.721601214799783 -46.5276326873137
rtoes 35.69889924090257
lfemur -73.70370504562266 18.692902663281945 -42.735602112121875
ltibia 58.126076357688774
lfoot -33.80983743694431 29.742733547424535
ltoes 11.633095069118575
43
root 0 0 0 40.736147864804366 -28.765025998884077 -0.39801610237972795
lowerback -5.950298712415641 1.0262742173834927 -12.496808700982404
upperback -14.642179472449097 0.720277353232422 -4.891130233182306
thorax -13.143714233139747 1.321253125997734 1.4964479889593933
lowerneck -12.43646495742224 7.0273121700717684 5.782765453282297
upperneck 17.324071204299738 8.132099063469266 1.7739903554788277
head 7.512577205520795 4.400680415872334 0.4921806466130646
rclavicle -3.851204832208019E-16 1.143111724493568E-14
rhumerus 169.7720460581627 -4.816265762949431 -182.40665612019495
rradius 9.984654316672827
rwrist 115.40376236303474
rhand -17.633165408611326 10.133406750071261
rfingers 7.125020000000032
rthumb 8.697743450209886 -19.819527063270748
lclavicle -5.5703576956324484E-15 7.366395915326092E-15
lhumerus 4.224585250150172 14.445015572535606 -0.5496162431872946
lradius 20.98580441367566
lwrist -38.53171952695744
lhand 0.48221228922995674 34.91456927643897
lfingers 7.125020000000042
lthumb 26.038285300629063 63.180337146928736
rfemur 175.33194225697716 -178.37198354678583 -157.5385169364743
rtibia 34.96299798156505
rfoot 12.92689858629808 -46.30837538658848
rtoes 35.45828494423702
lfemur -72.78781009680041 18.12084288808997 -42.190744848306096
ltibia 57.796705357820024
lfoot -34.190281424745386 29.583280512144377
ltoes 11.878390787638978
44
root 0 0 0 41.0587832677898 -29.20071727903793 -0.8270101089856379
lowerback -5.954423383558716 1.0485349685343128 -12.322308975334712
upperback -14.722469416311613 0.7489230799942905 -4.843031842615979
thorax -13.227524550160394 1.3206674513538184 1.4468974884549262
lowerneck -12.309820090802477 7.17603118329786 5.881577371599934
upperneck 17.264142506645694 8.312327015873459 1.7601290814952786
head 7.47891564257659 4.49083730598867 0.4901831231271847
rclavicle -2.1176024319473325E-16 1.1080310047024121E-14
rhumerus 169.77217575823803 -8.875837946598152 -177.68735006643897
rradius 9.946354099592469
rwrist 114.77825033923666
rhand -16.796297995936307 9.647830232941217
rfingers 7.125020000000034
rthumb 9.501643204099656 -20.244665671071385
lclavicle -5.353006803011286E-15 7.062143451285066E-15
lhumerus 4.026687656570289 14.3647769227507 -0.6415711008263898
lradius 21.001753840706982
lwrist -38.4540808320655
lhand 0.46065360618492335 34.90594800145441
lfingers 7.125020000000042
lthumb 26.01685492984286 63.17187596455421
rfemur 177.59000210649637 -179.04989897881308 -159.28253603109158
rtibia 35.26652966121715
rfoot 16.425736340658347 -46.0301599708789
rtoes 35.234751611613845
lfemur -71.88397829160573 17.523432423575276 -41.64163391008856
ltibia 57.44247544244006
lfoot -34.56309628147689 29.413218111843193
ltoes 12.158492524569068
